<svg xmlns="http://www.w3.org/2000/svg" viewBox="0 0 24 24" fill="white">
    <path d="M12 2C6.486 2 2 6.486 2 12s4.486 10 10 10 10-4.486 10-10S17.514 2 12 2m0 19.5c-5.247 0-9.5-4.253-9.5-9.5S6.753 2.5 12 2.5s9.5 4.253 9.5 9.5-4.253 9.5-9.5 9.5M3.018 12h2.49c.037-2.219.555-4.306 1.475-6.159A8.488 8.488 0 003.018 12m17.964 0h-2.49c-.037-2.219-.555-4.306-1.475-6.159A8.488 8.488 0 0120.982 12M12 3.5c-2.086 0-3.924 3.801-4.011 8.5h8.022c-.087-4.699-1.925-8.5-4.011-8.5m0 17c2.086 0 3.924-3.801 4.011-8.5H7.989c.087 4.699 1.925 8.5 4.011 8.5"/>
</svg>